<svg width="43" height="38" viewBox="0 0 43 38" fill="none" xmlns="http://www.w3.org/2000/svg">
<path d="M42.4706 19.1177C42.4706 8.55636 32.9585 0 21.2353 0C9.50412 0 0 8.55636 0 19.1177C0 28.6574 7.76283 36.5674 17.9173 38V24.6451H12.5248V19.1189H17.9173V14.9046C17.9173 10.1145 21.0827 7.46904 25.9349 7.46904C28.2589 7.46904 30.6916 7.84184 30.6916 7.84184V12.546H28.0094C25.3762 12.546 24.5533 14.0216 24.5533 15.5331V19.1177H30.4421L29.4958 24.6439H24.5533V37.9988C34.6998 36.5662 42.4706 28.6562 42.4706 19.1165V19.1177Z" fill="#F5F5F5"/>
</svg>
