<svg width="38" height="36" viewBox="0 0 38 36" fill="none" xmlns="http://www.w3.org/2000/svg">
<path d="M19 0C13.8349 0 13.1912 0.023555 11.1698 0.104315C9.14014 0.198535 7.76722 0.495777 6.55582 0.939958C5.30641 1.40208 4.24228 2.01564 3.19121 3.01392C2.13302 4.0066 1.47743 5.01161 0.995249 6.19161C0.524941 7.33571 0.210214 8.63236 0.110451 10.5493C0.0190024 12.4595 0 13.0663 0 17.9444C0 22.8226 0.0249406 23.4305 0.110451 25.3396C0.210214 27.2509 0.524941 28.5532 0.995249 29.6973C1.48456 30.8773 2.1342 31.8823 3.19121 32.875C4.24228 33.8744 5.30641 34.4935 6.55582 34.9489C7.76722 35.3875 9.14608 35.6904 11.1698 35.7846C13.1924 35.8709 13.8349 35.8889 19 35.8889C24.1651 35.8889 24.8088 35.8653 26.8302 35.7846C28.8539 35.6904 30.2328 35.3864 31.4442 34.9489C32.6936 34.4868 33.7577 33.8733 34.8088 32.875C35.867 31.8823 36.5226 30.8829 37.0048 29.6973C37.4691 28.5532 37.7898 27.2509 37.8895 25.3396C37.981 23.4294 38 22.8226 38 17.9444C38 13.0663 37.9751 12.4584 37.8895 10.5493C37.7898 8.63797 37.4679 7.32898 37.0048 6.19161C36.5154 5.01161 35.8658 4.0066 34.8088 3.01392C33.7577 2.01452 32.6995 1.39535 31.4442 0.939958C30.2328 0.495777 28.8539 0.198535 26.8302 0.104315C24.8076 0.0179467 24.1651 0 19 0ZM19 3.2304C24.0724 3.2304 24.6781 3.25396 26.6829 3.33472C28.5321 3.4166 29.5392 3.70823 30.2078 3.955C31.0998 4.28141 31.7233 4.66726 32.3979 5.29764C33.0594 5.92241 33.4679 6.51801 33.8135 7.36038C34.0748 7.99188 34.3836 8.94306 34.4703 10.6895C34.5558 12.5829 34.5808 13.156 34.5808 17.9456C34.5808 22.7351 34.5558 23.3083 34.4632 25.2016C34.3634 26.9481 34.0546 27.8992 33.7945 28.5307C33.4347 29.3731 33.0333 29.962 32.3705 30.5991C31.7019 31.2239 31.0653 31.6097 30.1805 31.9361C29.5202 32.1829 28.4988 32.4745 26.6425 32.5564C24.6271 32.6372 24.0333 32.6607 18.9477 32.6607C13.8622 32.6607 13.2696 32.6372 11.2518 32.5497C9.40261 32.4555 8.38242 32.1638 7.71378 31.9182C6.81116 31.5783 6.1924 31.1992 5.52969 30.5733C4.86105 29.9418 4.43587 29.3406 4.10808 28.5049C3.84204 27.8813 3.538 26.9167 3.43943 25.1635C3.37173 23.2825 3.33967 22.6992 3.33967 17.9186C3.33967 13.1403 3.37173 12.556 3.43943 10.6514C3.538 8.89819 3.84204 7.9358 4.10808 7.30991C4.43587 6.45632 4.86223 5.87305 5.52969 5.24155C6.19121 4.61679 6.81116 4.21299 7.71378 3.89667C8.38242 3.65103 9.37767 3.3594 11.234 3.27191C13.2494 3.20348 13.8432 3.17881 18.9216 3.17881L19 3.2304ZM19 8.73443C13.6069 8.73443 9.24584 12.8588 9.24584 17.9467C9.24584 23.0402 13.6128 27.1589 19 27.1589C24.3931 27.1589 28.7542 23.0346 28.7542 17.9467C28.7542 12.8532 24.3872 8.73443 19 8.73443ZM19 23.9285C15.4988 23.9285 12.6663 21.2534 12.6663 17.9467C12.6663 14.64 15.4988 11.9648 19 11.9648C22.5012 11.9648 25.3337 14.64 25.3337 17.9467C25.3337 21.2534 22.5012 23.9285 19 23.9285ZM31.4276 8.36652C31.4276 9.55886 30.4002 10.5212 29.1437 10.5212C27.8812 10.5212 26.8622 9.55773 26.8622 8.36652C26.8622 7.18092 27.8884 6.21628 29.1437 6.21628C30.3991 6.21628 31.4276 7.18092 31.4276 8.36652Z" fill="#F5F5F5"/>
</svg>
