<svg width="50" height="38" viewBox="0 0 50 38" fill="none" xmlns="http://www.w3.org/2000/svg">
<path d="M48.1499 5.86111C47.5657 3.56802 45.9486 1.76959 43.8656 1.13385C40.0302 5.42054e-05 24.6117 5.44795e-05 24.6117 5.44795e-05C24.6117 5.44795e-05 9.22245 -0.0271433 5.34707 1.13385C3.27488 1.77129 1.65002 3.56802 1.07202 5.86111C0.344908 10.2076 -0.0163424 14.6068 0.000567228 19.0264C-0.00711895 23.4171 0.352594 27.8095 1.07202 32.1288C1.65002 34.4218 3.27488 36.2203 5.34707 36.8662C9.18248 38 24.6117 38 24.6117 38C24.6117 38 39.9918 38 43.8656 36.8662C45.9486 36.2203 47.5657 34.4235 48.1499 32.1288C48.8555 27.8095 49.1998 23.4171 49.1752 19.0264C49.1998 14.6068 48.8632 10.2076 48.1499 5.86111ZM19.6864 27.1635V10.8535L32.5208 19.0264L19.6864 27.1635Z" fill="#F5F5F5"/>
</svg>
